# MagicaVoxel @ Ephtracy

# group
o 

# material
mtllib flower2.mtl
usemtl palette

# normals
vn -1 0 0
vn 1 0 0
vn 0 0 1
vn 0 0 -1
vn 0 -1 0
vn 0 1 0

# texcoords
vt 0.0136719 0.5
vt 0.333984 0.5
vt 0.650391 0.5
vt 0.912109 0.5

# verts
v 0 3.5 -0.2
v 0 3.5 -0.4
v 0 3.7 -0.2
v 0 3.7 -0.4
v 0.1 3.4 -0.2
v 0.1 3.4 -0.4
v 0.1 3.5 -0.2
v 0.1 3.5 -0.4
v 0.1 3.6 -0.1
v 0.1 3.6 -0.2
v 0.1 3.6 -0.4
v 0.1 3.6 -0.5
v 0.1 3.7 -0.1
v 0.1 3.7 -0.2
v 0.1 3.7 -0.4
v 0.1 3.7 -0.5
v 0.1 3.8 -0.2
v 0.1 3.8 -0.4
v 0.2 3 -0.2
v 0.2 3 -0.4
v 0.2 3.4 -0.1
v 0.2 3.4 -0.2
v 0.2 3.4 -0.4
v 0.2 3.4 -0.5
v 0.2 3.5 0
v 0.2 3.5 -0.1
v 0.2 3.5 -0.5
v 0.2 3.5 -0.6
v 0.2 3.6 -0.1
v 0.2 3.6 -0.2
v 0.2 3.6 -0.4
v 0.2 3.6 -0.5
v 0.2 3.7 0
v 0.2 3.7 -0.1
v 0.2 3.7 -0.2
v 0.2 3.7 -0.4
v 0.2 3.7 -0.5
v 0.2 3.7 -0.6
v 0.2 3.8 -0.1
v 0.2 3.8 -0.2
v 0.2 3.8 -0.4
v 0.2 3.8 -0.5
v 0.3 2.2 -0.3
v 0.3 2.2 -0.4
v 0.3 2.3 -0.3
v 0.3 2.3 -0.4
v 0.3 2.4 -0.2
v 0.3 2.4 -0.4
v 0.3 2.6 -0.4
v 0.3 2.6 -0.5
v 0.3 2.7 -0.1
v 0.3 2.7 -0.2
v 0.3 2.7 -0.4
v 0.3 2.7 -0.5
v 0.3 2.8 -0.1
v 0.3 2.8 -0.2
v 0.3 3 -0.2
v 0.3 3 -0.4
v 0.4 2 -0.2
v 0.4 2 -0.4
v 0.4 2.2 -0.3
v 0.4 2.2 -0.4
v 0.4 2.3 -0.3
v 0.4 2.3 -0.4
v 0.4 2.4 -0.2
v 0.4 2.4 -0.4
v 0.4 3.5 -0.2
v 0.4 3.5 -0.4
v 0.4 3.6 -0.1
v 0.4 3.6 -0.2
v 0.4 3.6 -0.4
v 0.4 3.6 -0.5
v 0.4 3.7 -0.1
v 0.4 3.7 -0.2
v 0.4 3.7 -0.4
v 0.4 3.7 -0.5
v 0.4 3.8 -0.2
v 0.4 3.8 -0.4
v 0.5 3.6 -0.2
v 0.5 3.6 -0.4
v 0.5 3.7 -0.2
v 0.5 3.7 -0.4
v 0.1 3.6 -0.2
v 0.1 3.6 -0.4
v 0.1 3.7 -0.2
v 0.1 3.7 -0.4
v 0.2 3.5 -0.2
v 0.2 3.5 -0.4
v 0.2 3.6 -0.1
v 0.2 3.6 -0.2
v 0.2 3.6 -0.4
v 0.2 3.6 -0.5
v 0.2 3.7 -0.1
v 0.2 3.7 -0.2
v 0.2 3.7 -0.4
v 0.2 3.7 -0.5
v 0.2 3.8 -0.2
v 0.2 3.8 -0.4
v 0.4 2.6 -0.4
v 0.4 2.6 -0.5
v 0.4 2.7 -0.1
v 0.4 2.7 -0.2
v 0.4 2.7 -0.4
v 0.4 2.7 -0.5
v 0.4 2.8 -0.1
v 0.4 2.8 -0.2
v 0.4 3.1 -0.2
v 0.4 3.1 -0.4
v 0.4 3.2 -0.2
v 0.4 3.2 -0.3
v 0.4 3.3 -0.2
v 0.4 3.3 -0.3
v 0.4 3.4 -0.1
v 0.4 3.4 -0.2
v 0.4 3.4 -0.4
v 0.4 3.4 -0.5
v 0.4 3.5 0
v 0.4 3.5 -0.1
v 0.4 3.5 -0.5
v 0.4 3.5 -0.6
v 0.4 3.6 -0.1
v 0.4 3.6 -0.2
v 0.4 3.6 -0.4
v 0.4 3.6 -0.5
v 0.4 3.7 0
v 0.4 3.7 -0.1
v 0.4 3.7 -0.2
v 0.4 3.7 -0.4
v 0.4 3.7 -0.5
v 0.4 3.7 -0.6
v 0.4 3.8 -0.1
v 0.4 3.8 -0.2
v 0.4 3.8 -0.4
v 0.4 3.8 -0.5
v 0.5 2.5 -0.2
v 0.5 2.5 -0.4
v 0.5 2.8 -0.3
v 0.5 2.8 -0.4
v 0.5 2.9 -0.3
v 0.5 2.9 -0.4
v 0.5 3.1 -0.2
v 0.5 3.1 -0.4
v 0.5 3.2 -0.2
v 0.5 3.2 -0.3
v 0.5 3.3 -0.2
v 0.5 3.3 -0.3
v 0.5 3.4 -0.2
v 0.5 3.4 -0.4
v 0.5 3.5 -0.2
v 0.5 3.5 -0.4
v 0.5 3.6 -0.1
v 0.5 3.6 -0.2
v 0.5 3.6 -0.4
v 0.5 3.6 -0.5
v 0.5 3.7 -0.1
v 0.5 3.7 -0.2
v 0.5 3.7 -0.4
v 0.5 3.7 -0.5
v 0.5 3.8 -0.2
v 0.5 3.8 -0.4
v 0.6 2 -0.2
v 0.6 2 -0.4
v 0.6 2.5 -0.2
v 0.6 2.5 -0.4
v 0.6 2.8 -0.3
v 0.6 2.8 -0.4
v 0.6 2.9 -0.3
v 0.6 2.9 -0.4
v 0.6 3.5 -0.2
v 0.6 3.5 -0.4
v 0.6 3.7 -0.2
v 0.6 3.7 -0.4
v 0.2 3.5 0
v 0.2 3.7 0
v 0.4 3.5 0
v 0.4 3.7 0
v 0.1 3.6 -0.1
v 0.1 3.7 -0.1
v 0.2 3.4 -0.1
v 0.2 3.5 -0.1
v 0.2 3.6 -0.1
v 0.2 3.7 -0.1
v 0.2 3.8 -0.1
v 0.3 2.7 -0.1
v 0.3 2.8 -0.1
v 0.4 2.7 -0.1
v 0.4 2.8 -0.1
v 0.4 3.4 -0.1
v 0.4 3.5 -0.1
v 0.4 3.6 -0.1
v 0.4 3.7 -0.1
v 0.4 3.8 -0.1
v 0.5 3.6 -0.1
v 0.5 3.7 -0.1
v 0 3.5 -0.2
v 0 3.7 -0.2
v 0.1 3.4 -0.2
v 0.1 3.5 -0.2
v 0.1 3.6 -0.2
v 0.1 3.7 -0.2
v 0.1 3.8 -0.2
v 0.2 3 -0.2
v 0.2 3.4 -0.2
v 0.2 3.6 -0.2
v 0.2 3.7 -0.2
v 0.2 3.8 -0.2
v 0.3 2.4 -0.2
v 0.3 2.7 -0.2
v 0.3 2.8 -0.2
v 0.3 3 -0.2
v 0.4 2 -0.2
v 0.4 2.4 -0.2
v 0.4 2.7 -0.2
v 0.4 2.8 -0.2
v 0.4 3.1 -0.2
v 0.4 3.2 -0.2
v 0.4 3.3 -0.2
v 0.4 3.4 -0.2
v 0.4 3.6 -0.2
v 0.4 3.7 -0.2
v 0.4 3.8 -0.2
v 0.5 2.5 -0.2
v 0.5 3.1 -0.2
v 0.5 3.2 -0.2
v 0.5 3.3 -0.2
v 0.5 3.4 -0.2
v 0.5 3.5 -0.2
v 0.5 3.6 -0.2
v 0.5 3.7 -0.2
v 0.5 3.8 -0.2
v 0.6 2 -0.2
v 0.6 2.5 -0.2
v 0.6 3.5 -0.2
v 0.6 3.7 -0.2
v 0.3 2.2 -0.3
v 0.3 2.3 -0.3
v 0.4 2.2 -0.3
v 0.4 2.3 -0.3
v 0.5 2.8 -0.3
v 0.5 2.9 -0.3
v 0.6 2.8 -0.3
v 0.6 2.9 -0.3
v 0.1 3.6 -0.4
v 0.1 3.7 -0.4
v 0.2 3.5 -0.4
v 0.2 3.6 -0.4
v 0.2 3.7 -0.4
v 0.2 3.8 -0.4
v 0.4 3.5 -0.4
v 0.4 3.6 -0.4
v 0.4 3.7 -0.4
v 0.4 3.8 -0.4
v 0.5 3.6 -0.4
v 0.5 3.7 -0.4
v 0.2 3.6 -0.5
v 0.2 3.7 -0.5
v 0.4 3.6 -0.5
v 0.4 3.7 -0.5
v 0.2 3.6 -0.1
v 0.2 3.7 -0.1
v 0.4 3.6 -0.1
v 0.4 3.7 -0.1
v 0.1 3.6 -0.2
v 0.1 3.7 -0.2
v 0.2 3.5 -0.2
v 0.2 3.6 -0.2
v 0.2 3.7 -0.2
v 0.2 3.8 -0.2
v 0.4 3.5 -0.2
v 0.4 3.6 -0.2
v 0.4 3.7 -0.2
v 0.4 3.8 -0.2
v 0.5 3.6 -0.2
v 0.5 3.7 -0.2
v 0.4 3.2 -0.3
v 0.4 3.3 -0.3
v 0.5 3.2 -0.3
v 0.5 3.3 -0.3
v 0 3.5 -0.4
v 0 3.7 -0.4
v 0.1 3.4 -0.4
v 0.1 3.5 -0.4
v 0.1 3.6 -0.4
v 0.1 3.7 -0.4
v 0.1 3.8 -0.4
v 0.2 3 -0.4
v 0.2 3.4 -0.4
v 0.2 3.6 -0.4
v 0.2 3.7 -0.4
v 0.2 3.8 -0.4
v 0.3 2.2 -0.4
v 0.3 2.3 -0.4
v 0.3 2.4 -0.4
v 0.3 2.6 -0.4
v 0.3 2.7 -0.4
v 0.3 3 -0.4
v 0.4 2 -0.4
v 0.4 2.2 -0.4
v 0.4 2.3 -0.4
v 0.4 2.4 -0.4
v 0.4 2.6 -0.4
v 0.4 2.7 -0.4
v 0.4 3.1 -0.4
v 0.4 3.4 -0.4
v 0.4 3.6 -0.4
v 0.4 3.7 -0.4
v 0.4 3.8 -0.4
v 0.5 2.5 -0.4
v 0.5 2.8 -0.4
v 0.5 2.9 -0.4
v 0.5 3.1 -0.4
v 0.5 3.4 -0.4
v 0.5 3.5 -0.4
v 0.5 3.6 -0.4
v 0.5 3.7 -0.4
v 0.5 3.8 -0.4
v 0.6 2 -0.4
v 0.6 2.5 -0.4
v 0.6 2.8 -0.4
v 0.6 2.9 -0.4
v 0.6 3.5 -0.4
v 0.6 3.7 -0.4
v 0.1 3.6 -0.5
v 0.1 3.7 -0.5
v 0.2 3.4 -0.5
v 0.2 3.5 -0.5
v 0.2 3.6 -0.5
v 0.2 3.7 -0.5
v 0.2 3.8 -0.5
v 0.3 2.6 -0.5
v 0.3 2.7 -0.5
v 0.4 2.6 -0.5
v 0.4 2.7 -0.5
v 0.4 3.4 -0.5
v 0.4 3.5 -0.5
v 0.4 3.6 -0.5
v 0.4 3.7 -0.5
v 0.4 3.8 -0.5
v 0.5 3.6 -0.5
v 0.5 3.7 -0.5
v 0.2 3.5 -0.6
v 0.2 3.7 -0.6
v 0.4 3.5 -0.6
v 0.4 3.7 -0.6
v 0.4 2 -0.2
v 0.6 2 -0.2
v 0.4 2 -0.4
v 0.6 2 -0.4
v 0.3 2.2 -0.3
v 0.4 2.2 -0.3
v 0.3 2.2 -0.4
v 0.4 2.2 -0.4
v 0.3 2.4 -0.2
v 0.4 2.4 -0.2
v 0.3 2.4 -0.4
v 0.4 2.4 -0.4
v 0.3 2.6 -0.4
v 0.4 2.6 -0.4
v 0.3 2.6 -0.5
v 0.4 2.6 -0.5
v 0.3 2.7 -0.1
v 0.4 2.7 -0.1
v 0.3 2.7 -0.2
v 0.4 2.7 -0.2
v 0.5 2.8 -0.3
v 0.6 2.8 -0.3
v 0.5 2.8 -0.4
v 0.6 2.8 -0.4
v 0.2 3 -0.2
v 0.3 3 -0.2
v 0.2 3 -0.4
v 0.3 3 -0.4
v 0.4 3.2 -0.2
v 0.5 3.2 -0.2
v 0.4 3.2 -0.3
v 0.5 3.2 -0.3
v 0.2 3.4 -0.1
v 0.4 3.4 -0.1
v 0.1 3.4 -0.2
v 0.2 3.4 -0.2
v 0.4 3.4 -0.2
v 0.5 3.4 -0.2
v 0.1 3.4 -0.4
v 0.2 3.4 -0.4
v 0.4 3.4 -0.4
v 0.5 3.4 -0.4
v 0.2 3.4 -0.5
v 0.4 3.4 -0.5
v 0.2 3.5 0
v 0.4 3.5 0
v 0.2 3.5 -0.1
v 0.4 3.5 -0.1
v 0 3.5 -0.2
v 0.1 3.5 -0.2
v 0.5 3.5 -0.2
v 0.6 3.5 -0.2
v 0 3.5 -0.4
v 0.1 3.5 -0.4
v 0.5 3.5 -0.4
v 0.6 3.5 -0.4
v 0.2 3.5 -0.5
v 0.4 3.5 -0.5
v 0.2 3.5 -0.6
v 0.4 3.5 -0.6
v 0.1 3.6 -0.1
v 0.2 3.6 -0.1
v 0.4 3.6 -0.1
v 0.5 3.6 -0.1
v 0.1 3.6 -0.2
v 0.2 3.6 -0.2
v 0.4 3.6 -0.2
v 0.5 3.6 -0.2
v 0.1 3.6 -0.4
v 0.2 3.6 -0.4
v 0.4 3.6 -0.4
v 0.5 3.6 -0.4
v 0.1 3.6 -0.5
v 0.2 3.6 -0.5
v 0.4 3.6 -0.5
v 0.5 3.6 -0.5
v 0.2 3.7 -0.1
v 0.4 3.7 -0.1
v 0.1 3.7 -0.2
v 0.2 3.7 -0.2
v 0.4 3.7 -0.2
v 0.5 3.7 -0.2
v 0.1 3.7 -0.4
v 0.2 3.7 -0.4
v 0.4 3.7 -0.4
v 0.5 3.7 -0.4
v 0.2 3.7 -0.5
v 0.4 3.7 -0.5
v 0.3 2.3 -0.3
v 0.4 2.3 -0.3
v 0.3 2.3 -0.4
v 0.4 2.3 -0.4
v 0.5 2.5 -0.2
v 0.6 2.5 -0.2
v 0.5 2.5 -0.4
v 0.6 2.5 -0.4
v 0.3 2.7 -0.4
v 0.4 2.7 -0.4
v 0.3 2.7 -0.5
v 0.4 2.7 -0.5
v 0.3 2.8 -0.1
v 0.4 2.8 -0.1
v 0.3 2.8 -0.2
v 0.4 2.8 -0.2
v 0.5 2.9 -0.3
v 0.6 2.9 -0.3
v 0.5 2.9 -0.4
v 0.6 2.9 -0.4
v 0.4 3.1 -0.2
v 0.5 3.1 -0.2
v 0.4 3.1 -0.4
v 0.5 3.1 -0.4
v 0.4 3.3 -0.2
v 0.5 3.3 -0.2
v 0.4 3.3 -0.3
v 0.5 3.3 -0.3
v 0.2 3.5 -0.2
v 0.4 3.5 -0.2
v 0.2 3.5 -0.4
v 0.4 3.5 -0.4
v 0.2 3.6 -0.1
v 0.4 3.6 -0.1
v 0.1 3.6 -0.2
v 0.2 3.6 -0.2
v 0.4 3.6 -0.2
v 0.5 3.6 -0.2
v 0.1 3.6 -0.4
v 0.2 3.6 -0.4
v 0.4 3.6 -0.4
v 0.5 3.6 -0.4
v 0.2 3.6 -0.5
v 0.4 3.6 -0.5
v 0.2 3.7 0
v 0.4 3.7 0
v 0.1 3.7 -0.1
v 0.2 3.7 -0.1
v 0.4 3.7 -0.1
v 0.5 3.7 -0.1
v 0 3.7 -0.2
v 0.1 3.7 -0.2
v 0.2 3.7 -0.2
v 0.4 3.7 -0.2
v 0.5 3.7 -0.2
v 0.6 3.7 -0.2
v 0 3.7 -0.4
v 0.1 3.7 -0.4
v 0.2 3.7 -0.4
v 0.4 3.7 -0.4
v 0.5 3.7 -0.4
v 0.6 3.7 -0.4
v 0.1 3.7 -0.5
v 0.2 3.7 -0.5
v 0.4 3.7 -0.5
v 0.5 3.7 -0.5
v 0.2 3.7 -0.6
v 0.4 3.7 -0.6
v 0.2 3.8 -0.1
v 0.4 3.8 -0.1
v 0.1 3.8 -0.2
v 0.2 3.8 -0.2
v 0.4 3.8 -0.2
v 0.5 3.8 -0.2
v 0.1 3.8 -0.4
v 0.2 3.8 -0.4
v 0.4 3.8 -0.4
v 0.5 3.8 -0.4
v 0.2 3.8 -0.5
v 0.4 3.8 -0.5

# faces
f 3/2/1 2/2/1 1/2/1
f 4/2/1 2/2/1 3/2/1
f 7/2/1 6/2/1 5/2/1
f 8/2/1 6/2/1 7/2/1
f 13/2/1 10/2/1 9/2/1
f 14/2/1 10/2/1 13/2/1
f 15/2/1 12/2/1 11/2/1
f 16/2/1 12/2/1 15/2/1
f 17/2/1 15/2/1 14/2/1
f 18/2/1 15/2/1 17/2/1
f 22/3/1 20/3/1 19/3/1
f 23/3/1 20/3/1 22/3/1
f 26/2/1 22/2/1 21/2/1
f 27/2/1 24/2/1 23/2/1
f 29/2/1 26/2/1 25/2/1
f 29/2/1 22/2/1 26/2/1
f 30/2/1 22/2/1 29/2/1
f 31/2/1 28/2/1 27/2/1
f 31/2/1 27/2/1 23/2/1
f 32/2/1 28/2/1 31/2/1
f 33/2/1 29/2/1 25/2/1
f 34/2/1 29/2/1 33/2/1
f 37/2/1 28/2/1 32/2/1
f 38/2/1 28/2/1 37/2/1
f 39/2/1 35/2/1 34/2/1
f 40/2/1 35/2/1 39/2/1
f 41/2/1 37/2/1 36/2/1
f 42/2/1 37/2/1 41/2/1
f 45/4/1 44/4/1 43/4/1
f 46/4/1 44/4/1 45/4/1
f 49/3/1 48/3/1 47/3/1
f 52/3/1 49/3/1 47/3/1
f 53/4/1 50/4/1 49/4/1
f 53/3/1 49/3/1 52/3/1
f 54/4/1 50/4/1 53/4/1
f 55/4/1 52/4/1 51/4/1
f 56/3/1 53/3/1 52/3/1
f 56/4/1 52/4/1 55/4/1
f 57/3/1 53/3/1 56/3/1
f 58/3/1 53/3/1 57/3/1
f 61/3/1 60/3/1 59/3/1
f 62/3/1 60/3/1 61/3/1
f 63/3/1 61/3/1 59/3/1
f 65/3/1 63/3/1 59/3/1
f 65/3/1 64/3/1 63/3/1
f 66/3/1 64/3/1 65/3/1
f 70/2/1 68/2/1 67/2/1
f 71/2/1 68/2/1 70/2/1
f 73/2/1 70/2/1 69/2/1
f 74/2/1 70/2/1 73/2/1
f 75/2/1 72/2/1 71/2/1
f 76/2/1 72/2/1 75/2/1
f 77/2/1 75/2/1 74/2/1
f 78/2/1 75/2/1 77/2/1
f 81/2/1 80/2/1 79/2/1
f 82/2/1 80/2/1 81/2/1
f 83/2/2 84/2/2 85/2/2
f 85/2/2 84/2/2 86/2/2
f 87/2/2 88/2/2 90/2/2
f 90/2/2 88/2/2 91/2/2
f 89/2/2 90/2/2 93/2/2
f 93/2/2 90/2/2 94/2/2
f 91/2/2 92/2/2 95/2/2
f 95/2/2 92/2/2 96/2/2
f 94/2/2 95/2/2 97/2/2
f 97/2/2 95/2/2 98/2/2
f 99/4/2 100/4/2 103/4/2
f 103/4/2 100/4/2 104/4/2
f 101/4/2 102/4/2 105/4/2
f 105/4/2 102/4/2 106/4/2
f 107/3/2 108/3/2 109/3/2
f 109/3/2 108/3/2 110/3/2
f 110/3/2 108/3/2 112/3/2
f 111/3/2 112/3/2 114/3/2
f 112/3/2 108/3/2 115/3/2
f 114/3/2 112/3/2 115/3/2
f 113/2/2 114/2/2 118/2/2
f 115/2/2 116/2/2 119/2/2
f 117/2/2 118/2/2 121/2/2
f 118/2/2 114/2/2 121/2/2
f 121/2/2 114/2/2 122/2/2
f 115/2/2 119/2/2 123/2/2
f 119/2/2 120/2/2 123/2/2
f 123/2/2 120/2/2 124/2/2
f 117/2/2 121/2/2 125/2/2
f 125/2/2 121/2/2 126/2/2
f 124/2/2 120/2/2 129/2/2
f 129/2/2 120/2/2 130/2/2
f 126/2/2 127/2/2 131/2/2
f 131/2/2 127/2/2 132/2/2
f 128/2/2 129/2/2 133/2/2
f 133/2/2 129/2/2 134/2/2
f 135/3/2 136/3/2 137/3/2
f 137/3/2 136/3/2 138/3/2
f 135/3/2 137/3/2 139/3/2
f 135/3/2 139/3/2 141/3/2
f 139/3/2 140/3/2 141/3/2
f 141/3/2 140/3/2 142/3/2
f 143/4/2 144/4/2 145/4/2
f 145/4/2 144/4/2 146/4/2
f 147/2/2 148/2/2 149/2/2
f 149/2/2 148/2/2 150/2/2
f 151/2/2 152/2/2 155/2/2
f 155/2/2 152/2/2 156/2/2
f 153/2/2 154/2/2 157/2/2
f 157/2/2 154/2/2 158/2/2
f 156/2/2 157/2/2 159/2/2
f 159/2/2 157/2/2 160/2/2
f 161/3/2 162/3/2 163/3/2
f 163/3/2 162/3/2 164/3/2
f 165/4/2 166/4/2 167/4/2
f 167/4/2 166/4/2 168/4/2
f 169/2/2 170/2/2 171/2/2
f 171/2/2 170/2/2 172/2/2
f 175/2/3 174/2/3 173/2/3
f 176/2/3 174/2/3 175/2/3
f 181/2/3 178/2/3 177/2/3
f 182/2/3 178/2/3 181/2/3
f 186/4/3 185/4/3 184/4/3
f 187/4/3 185/4/3 186/4/3
f 188/2/3 180/2/3 179/2/3
f 189/2/3 180/2/3 188/2/3
f 191/2/3 183/2/3 182/2/3
f 192/2/3 183/2/3 191/2/3
f 193/2/3 191/2/3 190/2/3
f 194/2/3 191/2/3 193/2/3
f 198/2/3 196/2/3 195/2/3
f 199/2/3 196/2/3 198/2/3
f 200/2/3 196/2/3 199/2/3
f 203/2/3 198/2/3 197/2/3
f 203/2/3 199/2/3 198/2/3
f 204/2/3 199/2/3 203/2/3
f 205/2/3 201/2/3 200/2/3
f 206/2/3 201/2/3 205/2/3
f 210/3/3 203/3/3 202/3/3
f 212/3/3 208/3/3 207/3/3
f 213/3/3 208/3/3 212/3/3
f 214/3/3 210/3/3 209/3/3
f 215/3/3 203/3/3 210/3/3
f 215/3/3 210/3/3 214/3/3
f 216/3/3 203/3/3 215/3/3
f 217/3/3 203/3/3 216/3/3
f 218/3/3 203/3/3 217/3/3
f 222/3/3 213/3/3 212/3/3
f 222/3/3 214/3/3 213/3/3
f 222/3/3 212/3/3 211/3/3
f 222/3/3 215/3/3 214/3/3
f 223/3/3 215/3/3 222/3/3
f 224/4/3 217/4/3 216/4/3
f 225/4/3 217/4/3 224/4/3
f 226/2/3 219/2/3 218/2/3
f 227/2/3 219/2/3 226/2/3
f 228/2/3 219/2/3 227/2/3
f 229/2/3 221/2/3 220/2/3
f 230/2/3 221/2/3 229/2/3
f 231/3/3 222/3/3 211/3/3
f 232/3/3 222/3/3 231/3/3
f 233/2/3 228/2/3 227/2/3
f 233/2/3 229/2/3 228/2/3
f 234/2/3 229/2/3 233/2/3
f 237/4/3 236/4/3 235/4/3
f 238/4/3 236/4/3 237/4/3
f 241/4/3 240/4/3 239/4/3
f 242/4/3 240/4/3 241/4/3
f 246/2/3 244/2/3 243/2/3
f 247/2/3 244/2/3 246/2/3
f 249/2/3 246/2/3 245/2/3
f 250/2/3 246/2/3 249/2/3
f 251/2/3 248/2/3 247/2/3
f 252/2/3 248/2/3 251/2/3
f 253/2/3 251/2/3 250/2/3
f 254/2/3 251/2/3 253/2/3
f 257/2/3 256/2/3 255/2/3
f 258/2/3 256/2/3 257/2/3
f 259/2/4 260/2/4 261/2/4
f 261/2/4 260/2/4 262/2/4
f 263/2/4 264/2/4 266/2/4
f 266/2/4 264/2/4 267/2/4
f 265/2/4 266/2/4 269/2/4
f 269/2/4 266/2/4 270/2/4
f 267/2/4 268/2/4 271/2/4
f 271/2/4 268/2/4 272/2/4
f 270/2/4 271/2/4 273/2/4
f 273/2/4 271/2/4 274/2/4
f 275/4/4 276/4/4 277/4/4
f 277/4/4 276/4/4 278/4/4
f 279/2/4 280/2/4 282/2/4
f 282/2/4 280/2/4 283/2/4
f 283/2/4 280/2/4 284/2/4
f 281/2/4 282/2/4 287/2/4
f 282/2/4 283/2/4 287/2/4
f 287/2/4 283/2/4 288/2/4
f 284/2/4 285/2/4 289/2/4
f 289/2/4 285/2/4 290/2/4
f 286/3/4 287/3/4 296/3/4
f 291/4/4 292/4/4 298/4/4
f 298/4/4 292/4/4 299/4/4
f 293/3/4 294/3/4 300/3/4
f 300/3/4 294/3/4 301/3/4
f 295/3/4 296/3/4 302/3/4
f 296/3/4 287/3/4 303/3/4
f 302/3/4 296/3/4 303/3/4
f 303/3/4 287/3/4 304/3/4
f 298/3/4 299/3/4 308/3/4
f 300/3/4 301/3/4 308/3/4
f 301/3/4 302/3/4 308/3/4
f 302/3/4 303/3/4 308/3/4
f 297/3/4 298/3/4 308/3/4
f 299/3/4 300/3/4 308/3/4
f 308/3/4 303/3/4 309/3/4
f 309/3/4 303/3/4 310/3/4
f 310/3/4 303/3/4 311/3/4
f 304/2/4 305/2/4 312/2/4
f 312/2/4 305/2/4 313/2/4
f 313/2/4 305/2/4 314/2/4
f 306/2/4 307/2/4 315/2/4
f 315/2/4 307/2/4 316/2/4
f 297/3/4 308/3/4 317/3/4
f 317/3/4 308/3/4 318/3/4
f 309/4/4 310/4/4 319/4/4
f 319/4/4 310/4/4 320/4/4
f 313/2/4 314/2/4 321/2/4
f 314/2/4 315/2/4 321/2/4
f 321/2/4 315/2/4 322/2/4
f 323/2/4 324/2/4 327/2/4
f 327/2/4 324/2/4 328/2/4
f 330/4/4 331/4/4 332/4/4
f 332/4/4 331/4/4 333/4/4
f 325/2/4 326/2/4 334/2/4
f 334/2/4 326/2/4 335/2/4
f 328/2/4 329/2/4 337/2/4
f 337/2/4 329/2/4 338/2/4
f 336/2/4 337/2/4 339/2/4
f 339/2/4 337/2/4 340/2/4
f 341/2/4 342/2/4 343/2/4
f 343/2/4 342/2/4 344/2/4
f 347/3/5 346/3/5 345/3/5
f 348/3/5 346/3/5 347/3/5
f 351/4/5 350/4/5 349/4/5
f 352/4/5 350/4/5 351/4/5
f 355/3/5 354/3/5 353/3/5
f 356/3/5 354/3/5 355/3/5
f 359/4/5 358/4/5 357/4/5
f 360/4/5 358/4/5 359/4/5
f 363/4/5 362/4/5 361/4/5
f 364/4/5 362/4/5 363/4/5
f 367/4/5 366/4/5 365/4/5
f 368/4/5 366/4/5 367/4/5
f 371/3/5 370/3/5 369/3/5
f 372/3/5 370/3/5 371/3/5
f 375/4/5 374/4/5 373/4/5
f 376/4/5 374/4/5 375/4/5
f 380/2/5 378/2/5 377/2/5
f 381/2/5 378/2/5 380/2/5
f 383/2/5 380/2/5 379/2/5
f 384/2/5 380/2/5 383/2/5
f 385/2/5 382/2/5 381/2/5
f 386/2/5 382/2/5 385/2/5
f 387/2/5 385/2/5 384/2/5
f 388/2/5 385/2/5 387/2/5
f 391/2/5 390/2/5 389/2/5
f 392/2/5 390/2/5 391/2/5
f 397/2/5 394/2/5 393/2/5
f 398/2/5 394/2/5 397/2/5
f 399/2/5 396/2/5 395/2/5
f 400/2/5 396/2/5 399/2/5
f 403/2/5 402/2/5 401/2/5
f 404/2/5 402/2/5 403/2/5
f 409/2/5 406/2/5 405/2/5
f 410/2/5 406/2/5 409/2/5
f 411/2/5 408/2/5 407/2/5
f 412/2/5 408/2/5 411/2/5
f 417/2/5 414/2/5 413/2/5
f 418/2/5 414/2/5 417/2/5
f 419/2/5 416/2/5 415/2/5
f 420/2/5 416/2/5 419/2/5
f 424/2/5 422/2/5 421/2/5
f 425/2/5 422/2/5 424/2/5
f 427/2/5 424/2/5 423/2/5
f 428/2/5 424/2/5 427/2/5
f 429/2/5 426/2/5 425/2/5
f 430/2/5 426/2/5 429/2/5
f 431/2/5 429/2/5 428/2/5
f 432/2/5 429/2/5 431/2/5
f 433/4/6 434/4/6 435/4/6
f 435/4/6 434/4/6 436/4/6
f 437/3/6 438/3/6 439/3/6
f 439/3/6 438/3/6 440/3/6
f 441/4/6 442/4/6 443/4/6
f 443/4/6 442/4/6 444/4/6
f 445/4/6 446/4/6 447/4/6
f 447/4/6 446/4/6 448/4/6
f 449/4/6 450/4/6 451/4/6
f 451/4/6 450/4/6 452/4/6
f 453/3/6 454/3/6 455/3/6
f 455/3/6 454/3/6 456/3/6
f 457/4/6 458/4/6 459/4/6
f 459/4/6 458/4/6 460/4/6
f 461/1/6 462/1/6 463/1/6
f 463/1/6 462/1/6 464/1/6
f 465/2/6 466/2/6 468/2/6
f 468/2/6 466/2/6 469/2/6
f 467/2/6 468/2/6 471/2/6
f 471/2/6 468/2/6 472/2/6
f 469/2/6 470/2/6 473/2/6
f 473/2/6 470/2/6 474/2/6
f 472/2/6 473/2/6 475/2/6
f 475/2/6 473/2/6 476/2/6
f 477/2/6 478/2/6 480/2/6
f 480/2/6 478/2/6 481/2/6
f 479/2/6 480/2/6 484/2/6
f 484/2/6 480/2/6 485/2/6
f 481/2/6 482/2/6 486/2/6
f 486/2/6 482/2/6 487/2/6
f 483/2/6 484/2/6 489/2/6
f 489/2/6 484/2/6 490/2/6
f 487/2/6 488/2/6 493/2/6
f 493/2/6 488/2/6 494/2/6
f 490/2/6 491/2/6 495/2/6
f 495/2/6 491/2/6 496/2/6
f 492/2/6 493/2/6 497/2/6
f 497/2/6 493/2/6 498/2/6
f 496/2/6 497/2/6 499/2/6
f 499/2/6 497/2/6 500/2/6
f 501/2/6 502/2/6 504/2/6
f 504/2/6 502/2/6 505/2/6
f 503/2/6 504/2/6 507/2/6
f 507/2/6 504/2/6 508/2/6
f 505/2/6 506/2/6 509/2/6
f 509/2/6 506/2/6 510/2/6
f 508/2/6 509/2/6 511/2/6
f 511/2/6 509/2/6 512/2/6
