# MagicaVoxel @ Ephtracy

# group
o 

# material
mtllib flower3.mtl
usemtl palette

# normals
vn -1 0 0
vn 1 0 0
vn 0 0 1
vn 0 0 -1
vn 0 -1 0
vn 0 1 0

# texcoords
vt 0.0136719 0.5
vt 0.650391 0.5
vt 0.673828 0.5
vt 0.912109 0.5

# verts
v 0 3.5 -0.2
v 0 3.5 -0.4
v 0 3.7 -0.2
v 0 3.7 -0.4
v 0.1 2.6 -0.3
v 0.1 2.6 -0.4
v 0.1 2.7 -0.3
v 0.1 2.7 -0.4
v 0.1 3.4 -0.2
v 0.1 3.4 -0.4
v 0.1 3.5 -0.2
v 0.1 3.5 -0.4
v 0.1 3.6 -0.1
v 0.1 3.6 -0.2
v 0.1 3.6 -0.4
v 0.1 3.6 -0.5
v 0.1 3.7 -0.1
v 0.1 3.7 -0.2
v 0.1 3.7 -0.4
v 0.1 3.7 -0.5
v 0.1 3.8 -0.2
v 0.1 3.8 -0.4
v 0.2 2 -0.4
v 0.2 2 -0.6
v 0.2 2.2 -0.3
v 0.2 2.2 -0.4
v 0.2 2.3 -0.3
v 0.2 2.3 -0.4
v 0.2 2.4 -0.3
v 0.2 2.4 -0.4
v 0.2 2.5 -0.5
v 0.2 2.5 -0.6
v 0.2 2.6 -0.3
v 0.2 2.6 -0.4
v 0.2 2.7 -0.3
v 0.2 2.7 -0.4
v 0.2 2.8 -0.5
v 0.2 2.8 -0.6
v 0.2 2.9 -0.5
v 0.2 2.9 -0.6
v 0.2 3 -0.2
v 0.2 3 -0.3
v 0.2 3.1 -0.4
v 0.2 3.1 -0.5
v 0.2 3.4 -0.1
v 0.2 3.4 -0.2
v 0.2 3.4 -0.4
v 0.2 3.4 -0.5
v 0.2 3.5 0
v 0.2 3.5 -0.1
v 0.2 3.5 -0.5
v 0.2 3.5 -0.6
v 0.2 3.6 -0.1
v 0.2 3.6 -0.2
v 0.2 3.6 -0.4
v 0.2 3.6 -0.5
v 0.2 3.7 0
v 0.2 3.7 -0.1
v 0.2 3.7 -0.2
v 0.2 3.7 -0.4
v 0.2 3.7 -0.5
v 0.2 3.7 -0.6
v 0.2 3.8 -0.1
v 0.2 3.8 -0.2
v 0.2 3.8 -0.4
v 0.2 3.8 -0.5
v 0.3 3.2 -0.4
v 0.3 3.2 -0.5
v 0.3 3.3 -0.4
v 0.3 3.3 -0.5
v 0.4 3.5 -0.2
v 0.4 3.5 -0.4
v 0.4 3.6 -0.1
v 0.4 3.6 -0.2
v 0.4 3.6 -0.4
v 0.4 3.6 -0.5
v 0.4 3.7 -0.1
v 0.4 3.7 -0.2
v 0.4 3.7 -0.4
v 0.4 3.7 -0.5
v 0.4 3.8 -0.2
v 0.4 3.8 -0.4
v 0.5 3.6 -0.2
v 0.5 3.6 -0.4
v 0.5 3.7 -0.2
v 0.5 3.7 -0.4
v 0.1 3.6 -0.2
v 0.1 3.6 -0.4
v 0.1 3.7 -0.2
v 0.1 3.7 -0.4
v 0.2 3.5 -0.2
v 0.2 3.5 -0.4
v 0.2 3.6 -0.1
v 0.2 3.6 -0.2
v 0.2 3.6 -0.4
v 0.2 3.6 -0.5
v 0.2 3.7 -0.1
v 0.2 3.7 -0.2
v 0.2 3.7 -0.4
v 0.2 3.7 -0.5
v 0.2 3.8 -0.2
v 0.2 3.8 -0.4
v 0.3 2.2 -0.3
v 0.3 2.2 -0.4
v 0.3 2.3 -0.3
v 0.3 2.3 -0.4
v 0.3 2.8 -0.5
v 0.3 2.8 -0.6
v 0.3 2.9 -0.5
v 0.3 2.9 -0.6
v 0.4 2 -0.4
v 0.4 2 -0.6
v 0.4 2.4 -0.3
v 0.4 2.4 -0.4
v 0.4 2.5 -0.5
v 0.4 2.5 -0.6
v 0.4 2.7 -0.3
v 0.4 2.7 -0.4
v 0.4 2.8 -0.3
v 0.4 2.8 -0.4
v 0.4 3 -0.2
v 0.4 3 -0.3
v 0.4 3.1 -0.4
v 0.4 3.1 -0.5
v 0.4 3.2 -0.4
v 0.4 3.2 -0.5
v 0.4 3.3 -0.4
v 0.4 3.3 -0.5
v 0.4 3.4 -0.1
v 0.4 3.4 -0.2
v 0.4 3.4 -0.4
v 0.4 3.4 -0.5
v 0.4 3.5 0
v 0.4 3.5 -0.1
v 0.4 3.5 -0.5
v 0.4 3.5 -0.6
v 0.4 3.6 -0.1
v 0.4 3.6 -0.2
v 0.4 3.6 -0.4
v 0.4 3.6 -0.5
v 0.4 3.7 0
v 0.4 3.7 -0.1
v 0.4 3.7 -0.2
v 0.4 3.7 -0.4
v 0.4 3.7 -0.5
v 0.4 3.7 -0.6
v 0.4 3.8 -0.1
v 0.4 3.8 -0.2
v 0.4 3.8 -0.4
v 0.4 3.8 -0.5
v 0.5 2.7 -0.3
v 0.5 2.7 -0.4
v 0.5 2.8 -0.3
v 0.5 2.8 -0.4
v 0.5 3.4 -0.2
v 0.5 3.4 -0.4
v 0.5 3.5 -0.2
v 0.5 3.5 -0.4
v 0.5 3.6 -0.1
v 0.5 3.6 -0.2
v 0.5 3.6 -0.4
v 0.5 3.6 -0.5
v 0.5 3.7 -0.1
v 0.5 3.7 -0.2
v 0.5 3.7 -0.4
v 0.5 3.7 -0.5
v 0.5 3.8 -0.2
v 0.5 3.8 -0.4
v 0.6 3.5 -0.2
v 0.6 3.5 -0.4
v 0.6 3.7 -0.2
v 0.6 3.7 -0.4
v 0.2 3.5 0
v 0.2 3.7 0
v 0.4 3.5 0
v 0.4 3.7 0
v 0.1 3.6 -0.1
v 0.1 3.7 -0.1
v 0.2 3.4 -0.1
v 0.2 3.5 -0.1
v 0.2 3.6 -0.1
v 0.2 3.7 -0.1
v 0.2 3.8 -0.1
v 0.4 3.4 -0.1
v 0.4 3.5 -0.1
v 0.4 3.6 -0.1
v 0.4 3.7 -0.1
v 0.4 3.8 -0.1
v 0.5 3.6 -0.1
v 0.5 3.7 -0.1
v 0 3.5 -0.2
v 0 3.7 -0.2
v 0.1 3.4 -0.2
v 0.1 3.5 -0.2
v 0.1 3.6 -0.2
v 0.1 3.7 -0.2
v 0.1 3.8 -0.2
v 0.2 3 -0.2
v 0.2 3.4 -0.2
v 0.2 3.6 -0.2
v 0.2 3.7 -0.2
v 0.2 3.8 -0.2
v 0.4 3 -0.2
v 0.4 3.4 -0.2
v 0.4 3.6 -0.2
v 0.4 3.7 -0.2
v 0.4 3.8 -0.2
v 0.5 3.4 -0.2
v 0.5 3.5 -0.2
v 0.5 3.6 -0.2
v 0.5 3.7 -0.2
v 0.5 3.8 -0.2
v 0.6 3.5 -0.2
v 0.6 3.7 -0.2
v 0.1 2.6 -0.3
v 0.1 2.7 -0.3
v 0.2 2.2 -0.3
v 0.2 2.3 -0.3
v 0.2 2.4 -0.3
v 0.2 2.6 -0.3
v 0.2 2.7 -0.3
v 0.2 3 -0.3
v 0.3 2.2 -0.3
v 0.3 2.3 -0.3
v 0.4 2.4 -0.3
v 0.4 2.7 -0.3
v 0.4 2.8 -0.3
v 0.4 3 -0.3
v 0.5 2.7 -0.3
v 0.5 2.8 -0.3
v 0.1 3.6 -0.4
v 0.1 3.7 -0.4
v 0.2 2 -0.4
v 0.2 2.2 -0.4
v 0.2 2.3 -0.4
v 0.2 2.4 -0.4
v 0.2 3.5 -0.4
v 0.2 3.6 -0.4
v 0.2 3.7 -0.4
v 0.2 3.8 -0.4
v 0.3 2.2 -0.4
v 0.3 2.3 -0.4
v 0.4 2 -0.4
v 0.4 2.4 -0.4
v 0.4 3.5 -0.4
v 0.4 3.6 -0.4
v 0.4 3.7 -0.4
v 0.4 3.8 -0.4
v 0.5 3.6 -0.4
v 0.5 3.7 -0.4
v 0.2 3.6 -0.5
v 0.2 3.7 -0.5
v 0.4 3.6 -0.5
v 0.4 3.7 -0.5
v 0.2 3.6 -0.1
v 0.2 3.7 -0.1
v 0.4 3.6 -0.1
v 0.4 3.7 -0.1
v 0.1 3.6 -0.2
v 0.1 3.7 -0.2
v 0.2 3.5 -0.2
v 0.2 3.6 -0.2
v 0.2 3.7 -0.2
v 0.2 3.8 -0.2
v 0.4 3.5 -0.2
v 0.4 3.6 -0.2
v 0.4 3.7 -0.2
v 0.4 3.8 -0.2
v 0.5 3.6 -0.2
v 0.5 3.7 -0.2
v 0 3.5 -0.4
v 0 3.7 -0.4
v 0.1 2.6 -0.4
v 0.1 2.7 -0.4
v 0.1 3.4 -0.4
v 0.1 3.5 -0.4
v 0.1 3.6 -0.4
v 0.1 3.7 -0.4
v 0.1 3.8 -0.4
v 0.2 2.6 -0.4
v 0.2 2.7 -0.4
v 0.2 3.1 -0.4
v 0.2 3.4 -0.4
v 0.2 3.6 -0.4
v 0.2 3.7 -0.4
v 0.2 3.8 -0.4
v 0.3 3.2 -0.4
v 0.3 3.3 -0.4
v 0.4 2.7 -0.4
v 0.4 2.8 -0.4
v 0.4 3.1 -0.4
v 0.4 3.2 -0.4
v 0.4 3.3 -0.4
v 0.4 3.4 -0.4
v 0.4 3.6 -0.4
v 0.4 3.7 -0.4
v 0.4 3.8 -0.4
v 0.5 2.7 -0.4
v 0.5 2.8 -0.4
v 0.5 3.4 -0.4
v 0.5 3.5 -0.4
v 0.5 3.6 -0.4
v 0.5 3.7 -0.4
v 0.5 3.8 -0.4
v 0.6 3.5 -0.4
v 0.6 3.7 -0.4
v 0.1 3.6 -0.5
v 0.1 3.7 -0.5
v 0.2 2.5 -0.5
v 0.2 2.8 -0.5
v 0.2 2.9 -0.5
v 0.2 3.1 -0.5
v 0.2 3.4 -0.5
v 0.2 3.5 -0.5
v 0.2 3.6 -0.5
v 0.2 3.7 -0.5
v 0.2 3.8 -0.5
v 0.3 2.8 -0.5
v 0.3 2.9 -0.5
v 0.3 3.2 -0.5
v 0.3 3.3 -0.5
v 0.4 2.5 -0.5
v 0.4 3.1 -0.5
v 0.4 3.2 -0.5
v 0.4 3.3 -0.5
v 0.4 3.4 -0.5
v 0.4 3.5 -0.5
v 0.4 3.6 -0.5
v 0.4 3.7 -0.5
v 0.4 3.8 -0.5
v 0.5 3.6 -0.5
v 0.5 3.7 -0.5
v 0.2 2 -0.6
v 0.2 2.5 -0.6
v 0.2 2.8 -0.6
v 0.2 2.9 -0.6
v 0.2 3.5 -0.6
v 0.2 3.7 -0.6
v 0.3 2.8 -0.6
v 0.3 2.9 -0.6
v 0.4 2 -0.6
v 0.4 2.5 -0.6
v 0.4 3.5 -0.6
v 0.4 3.7 -0.6
v 0.2 2 -0.4
v 0.4 2 -0.4
v 0.2 2 -0.6
v 0.4 2 -0.6
v 0.2 2.2 -0.3
v 0.3 2.2 -0.3
v 0.2 2.2 -0.4
v 0.3 2.2 -0.4
v 0.2 2.4 -0.3
v 0.4 2.4 -0.3
v 0.2 2.4 -0.4
v 0.4 2.4 -0.4
v 0.1 2.6 -0.3
v 0.2 2.6 -0.3
v 0.1 2.6 -0.4
v 0.2 2.6 -0.4
v 0.4 2.7 -0.3
v 0.5 2.7 -0.3
v 0.4 2.7 -0.4
v 0.5 2.7 -0.4
v 0.2 2.8 -0.5
v 0.3 2.8 -0.5
v 0.2 2.8 -0.6
v 0.3 2.8 -0.6
v 0.2 3 -0.2
v 0.4 3 -0.2
v 0.2 3 -0.3
v 0.4 3 -0.3
v 0.3 3.2 -0.4
v 0.4 3.2 -0.4
v 0.3 3.2 -0.5
v 0.4 3.2 -0.5
v 0.2 3.4 -0.1
v 0.4 3.4 -0.1
v 0.1 3.4 -0.2
v 0.2 3.4 -0.2
v 0.4 3.4 -0.2
v 0.5 3.4 -0.2
v 0.1 3.4 -0.4
v 0.2 3.4 -0.4
v 0.4 3.4 -0.4
v 0.5 3.4 -0.4
v 0.2 3.4 -0.5
v 0.4 3.4 -0.5
v 0.2 3.5 0
v 0.4 3.5 0
v 0.2 3.5 -0.1
v 0.4 3.5 -0.1
v 0 3.5 -0.2
v 0.1 3.5 -0.2
v 0.5 3.5 -0.2
v 0.6 3.5 -0.2
v 0 3.5 -0.4
v 0.1 3.5 -0.4
v 0.5 3.5 -0.4
v 0.6 3.5 -0.4
v 0.2 3.5 -0.5
v 0.4 3.5 -0.5
v 0.2 3.5 -0.6
v 0.4 3.5 -0.6
v 0.1 3.6 -0.1
v 0.2 3.6 -0.1
v 0.4 3.6 -0.1
v 0.5 3.6 -0.1
v 0.1 3.6 -0.2
v 0.2 3.6 -0.2
v 0.4 3.6 -0.2
v 0.5 3.6 -0.2
v 0.1 3.6 -0.4
v 0.2 3.6 -0.4
v 0.4 3.6 -0.4
v 0.5 3.6 -0.4
v 0.1 3.6 -0.5
v 0.2 3.6 -0.5
v 0.4 3.6 -0.5
v 0.5 3.6 -0.5
v 0.2 3.7 -0.1
v 0.4 3.7 -0.1
v 0.1 3.7 -0.2
v 0.2 3.7 -0.2
v 0.4 3.7 -0.2
v 0.5 3.7 -0.2
v 0.1 3.7 -0.4
v 0.2 3.7 -0.4
v 0.4 3.7 -0.4
v 0.5 3.7 -0.4
v 0.2 3.7 -0.5
v 0.4 3.7 -0.5
v 0.2 2.3 -0.3
v 0.3 2.3 -0.3
v 0.2 2.3 -0.4
v 0.3 2.3 -0.4
v 0.2 2.5 -0.5
v 0.4 2.5 -0.5
v 0.2 2.5 -0.6
v 0.4 2.5 -0.6
v 0.1 2.7 -0.3
v 0.2 2.7 -0.3
v 0.1 2.7 -0.4
v 0.2 2.7 -0.4
v 0.4 2.8 -0.3
v 0.5 2.8 -0.3
v 0.4 2.8 -0.4
v 0.5 2.8 -0.4
v 0.2 2.9 -0.5
v 0.3 2.9 -0.5
v 0.2 2.9 -0.6
v 0.3 2.9 -0.6
v 0.2 3.1 -0.4
v 0.4 3.1 -0.4
v 0.2 3.1 -0.5
v 0.4 3.1 -0.5
v 0.3 3.3 -0.4
v 0.4 3.3 -0.4
v 0.3 3.3 -0.5
v 0.4 3.3 -0.5
v 0.2 3.5 -0.2
v 0.4 3.5 -0.2
v 0.2 3.5 -0.4
v 0.4 3.5 -0.4
v 0.2 3.6 -0.1
v 0.4 3.6 -0.1
v 0.1 3.6 -0.2
v 0.2 3.6 -0.2
v 0.4 3.6 -0.2
v 0.5 3.6 -0.2
v 0.1 3.6 -0.4
v 0.2 3.6 -0.4
v 0.4 3.6 -0.4
v 0.5 3.6 -0.4
v 0.2 3.6 -0.5
v 0.4 3.6 -0.5
v 0.2 3.7 0
v 0.4 3.7 0
v 0.1 3.7 -0.1
v 0.2 3.7 -0.1
v 0.4 3.7 -0.1
v 0.5 3.7 -0.1
v 0 3.7 -0.2
v 0.1 3.7 -0.2
v 0.2 3.7 -0.2
v 0.4 3.7 -0.2
v 0.5 3.7 -0.2
v 0.6 3.7 -0.2
v 0 3.7 -0.4
v 0.1 3.7 -0.4
v 0.2 3.7 -0.4
v 0.4 3.7 -0.4
v 0.5 3.7 -0.4
v 0.6 3.7 -0.4
v 0.1 3.7 -0.5
v 0.2 3.7 -0.5
v 0.4 3.7 -0.5
v 0.5 3.7 -0.5
v 0.2 3.7 -0.6
v 0.4 3.7 -0.6
v 0.2 3.8 -0.1
v 0.4 3.8 -0.1
v 0.1 3.8 -0.2
v 0.2 3.8 -0.2
v 0.4 3.8 -0.2
v 0.5 3.8 -0.2
v 0.1 3.8 -0.4
v 0.2 3.8 -0.4
v 0.4 3.8 -0.4
v 0.5 3.8 -0.4
v 0.2 3.8 -0.5
v 0.4 3.8 -0.5

# faces
f 3/3/1 2/3/1 1/3/1
f 4/3/1 2/3/1 3/3/1
f 7/4/1 6/4/1 5/4/1
f 8/4/1 6/4/1 7/4/1
f 11/3/1 10/3/1 9/3/1
f 12/3/1 10/3/1 11/3/1
f 17/3/1 14/3/1 13/3/1
f 18/3/1 14/3/1 17/3/1
f 19/3/1 16/3/1 15/3/1
f 20/3/1 16/3/1 19/3/1
f 21/3/1 19/3/1 18/3/1
f 22/3/1 19/3/1 21/3/1
f 26/2/1 24/2/1 23/2/1
f 27/4/1 26/4/1 25/4/1
f 28/2/1 24/2/1 26/2/1
f 28/4/1 26/4/1 27/4/1
f 30/2/1 24/2/1 28/2/1
f 31/2/1 24/2/1 30/2/1
f 31/2/1 30/2/1 29/2/1
f 32/2/1 24/2/1 31/2/1
f 33/2/1 31/2/1 29/2/1
f 34/2/1 31/2/1 33/2/1
f 36/2/1 31/2/1 34/2/1
f 37/2/1 31/2/1 36/2/1
f 37/2/1 36/2/1 35/2/1
f 39/2/1 37/2/1 35/2/1
f 39/4/1 38/4/1 37/4/1
f 40/4/1 38/4/1 39/4/1
f 42/2/1 39/2/1 35/2/1
f 43/2/1 39/2/1 42/2/1
f 43/2/1 42/2/1 41/2/1
f 44/2/1 39/2/1 43/2/1
f 46/2/1 43/2/1 41/2/1
f 47/2/1 43/2/1 46/2/1
f 50/3/1 46/3/1 45/3/1
f 51/3/1 48/3/1 47/3/1
f 53/3/1 50/3/1 49/3/1
f 53/3/1 46/3/1 50/3/1
f 54/3/1 46/3/1 53/3/1
f 55/3/1 51/3/1 47/3/1
f 55/3/1 52/3/1 51/3/1
f 56/3/1 52/3/1 55/3/1
f 57/3/1 53/3/1 49/3/1
f 58/3/1 53/3/1 57/3/1
f 61/3/1 52/3/1 56/3/1
f 62/3/1 52/3/1 61/3/1
f 63/3/1 59/3/1 58/3/1
f 64/3/1 59/3/1 63/3/1
f 65/3/1 61/3/1 60/3/1
f 66/3/1 61/3/1 65/3/1
f 69/4/1 68/4/1 67/4/1
f 70/4/1 68/4/1 69/4/1
f 74/3/1 72/3/1 71/3/1
f 75/3/1 72/3/1 74/3/1
f 77/3/1 74/3/1 73/3/1
f 78/3/1 74/3/1 77/3/1
f 79/3/1 76/3/1 75/3/1
f 80/3/1 76/3/1 79/3/1
f 81/3/1 79/3/1 78/3/1
f 82/3/1 79/3/1 81/3/1
f 85/3/1 84/3/1 83/3/1
f 86/3/1 84/3/1 85/3/1
f 87/3/2 88/3/2 89/3/2
f 89/3/2 88/3/2 90/3/2
f 91/3/2 92/3/2 94/3/2
f 94/3/2 92/3/2 95/3/2
f 93/3/2 94/3/2 97/3/2
f 97/3/2 94/3/2 98/3/2
f 95/3/2 96/3/2 99/3/2
f 99/3/2 96/3/2 100/3/2
f 98/3/2 99/3/2 101/3/2
f 101/3/2 99/3/2 102/3/2
f 103/4/2 104/4/2 105/4/2
f 105/4/2 104/4/2 106/4/2
f 107/4/2 108/4/2 109/4/2
f 109/4/2 108/4/2 110/4/2
f 111/2/2 112/2/2 114/2/2
f 114/2/2 112/2/2 115/2/2
f 113/2/2 114/2/2 115/2/2
f 115/2/2 112/2/2 116/2/2
f 113/2/2 115/2/2 117/2/2
f 117/2/2 115/2/2 118/2/2
f 118/2/2 115/2/2 120/2/2
f 119/2/2 120/2/2 122/2/2
f 120/2/2 115/2/2 123/2/2
f 121/2/2 122/2/2 123/2/2
f 122/2/2 120/2/2 123/2/2
f 123/2/2 115/2/2 124/2/2
f 121/2/2 123/2/2 125/2/2
f 121/2/2 125/2/2 127/2/2
f 125/4/2 126/4/2 127/4/2
f 127/4/2 126/4/2 128/4/2
f 121/2/2 127/2/2 130/2/2
f 130/2/2 127/2/2 131/2/2
f 129/3/2 130/3/2 134/3/2
f 131/3/2 132/3/2 135/3/2
f 134/3/2 130/3/2 137/3/2
f 133/3/2 134/3/2 137/3/2
f 137/3/2 130/3/2 138/3/2
f 131/3/2 135/3/2 139/3/2
f 135/3/2 136/3/2 139/3/2
f 139/3/2 136/3/2 140/3/2
f 133/3/2 137/3/2 141/3/2
f 141/3/2 137/3/2 142/3/2
f 140/3/2 136/3/2 145/3/2
f 145/3/2 136/3/2 146/3/2
f 142/3/2 143/3/2 147/3/2
f 147/3/2 143/3/2 148/3/2
f 144/3/2 145/3/2 149/3/2
f 149/3/2 145/3/2 150/3/2
f 151/4/2 152/4/2 153/4/2
f 153/4/2 152/4/2 154/4/2
f 155/3/2 156/3/2 157/3/2
f 157/3/2 156/3/2 158/3/2
f 159/3/2 160/3/2 163/3/2
f 163/3/2 160/3/2 164/3/2
f 161/3/2 162/3/2 165/3/2
f 165/3/2 162/3/2 166/3/2
f 164/3/2 165/3/2 167/3/2
f 167/3/2 165/3/2 168/3/2
f 169/3/2 170/3/2 171/3/2
f 171/3/2 170/3/2 172/3/2
f 175/3/3 174/3/3 173/3/3
f 176/3/3 174/3/3 175/3/3
f 181/3/3 178/3/3 177/3/3
f 182/3/3 178/3/3 181/3/3
f 184/3/3 180/3/3 179/3/3
f 185/3/3 180/3/3 184/3/3
f 187/3/3 183/3/3 182/3/3
f 188/3/3 183/3/3 187/3/3
f 189/3/3 187/3/3 186/3/3
f 190/3/3 187/3/3 189/3/3
f 194/3/3 192/3/3 191/3/3
f 195/3/3 192/3/3 194/3/3
f 196/3/3 192/3/3 195/3/3
f 199/3/3 194/3/3 193/3/3
f 199/3/3 195/3/3 194/3/3
f 200/3/3 195/3/3 199/3/3
f 201/3/3 197/3/3 196/3/3
f 202/3/3 197/3/3 201/3/3
f 203/2/3 199/2/3 198/2/3
f 204/2/3 199/2/3 203/2/3
f 208/3/3 205/3/3 204/3/3
f 209/3/3 205/3/3 208/3/3
f 210/3/3 205/3/3 209/3/3
f 211/3/3 207/3/3 206/3/3
f 212/3/3 207/3/3 211/3/3
f 213/3/3 210/3/3 209/3/3
f 213/3/3 211/3/3 210/3/3
f 214/3/3 211/3/3 213/3/3
f 220/4/3 216/4/3 215/4/3
f 221/4/3 216/4/3 220/4/3
f 223/4/3 218/4/3 217/4/3
f 224/4/3 218/4/3 223/4/3
f 225/2/3 222/2/3 221/2/3
f 225/2/3 220/2/3 219/2/3
f 225/2/3 221/2/3 220/2/3
f 226/2/3 222/2/3 225/2/3
f 227/2/3 222/2/3 226/2/3
f 228/2/3 222/2/3 227/2/3
f 229/4/3 227/4/3 226/4/3
f 230/4/3 227/4/3 229/4/3
f 238/3/3 232/3/3 231/3/3
f 239/3/3 232/3/3 238/3/3
f 241/2/3 234/2/3 233/2/3
f 242/2/3 236/2/3 235/2/3
f 243/2/3 241/2/3 233/2/3
f 243/2/3 242/2/3 241/2/3
f 244/2/3 236/2/3 242/2/3
f 244/2/3 242/2/3 243/2/3
f 245/3/3 238/3/3 237/3/3
f 246/3/3 238/3/3 245/3/3
f 247/3/3 240/3/3 239/3/3
f 248/3/3 240/3/3 247/3/3
f 249/3/3 247/3/3 246/3/3
f 250/3/3 247/3/3 249/3/3
f 253/3/3 252/3/3 251/3/3
f 254/3/3 252/3/3 253/3/3
f 255/3/4 256/3/4 257/3/4
f 257/3/4 256/3/4 258/3/4
f 259/3/4 260/3/4 262/3/4
f 262/3/4 260/3/4 263/3/4
f 261/3/4 262/3/4 265/3/4
f 265/3/4 262/3/4 266/3/4
f 263/3/4 264/3/4 267/3/4
f 267/3/4 264/3/4 268/3/4
f 266/3/4 267/3/4 269/3/4
f 269/3/4 267/3/4 270/3/4
f 271/3/4 272/3/4 276/3/4
f 276/3/4 272/3/4 277/3/4
f 277/3/4 272/3/4 278/3/4
f 273/4/4 274/4/4 280/4/4
f 280/4/4 274/4/4 281/4/4
f 275/3/4 276/3/4 283/3/4
f 276/3/4 277/3/4 283/3/4
f 283/3/4 277/3/4 284/3/4
f 278/3/4 279/3/4 285/3/4
f 285/3/4 279/3/4 286/3/4
f 282/2/4 283/2/4 287/2/4
f 287/2/4 283/2/4 288/2/4
f 282/2/4 287/2/4 291/2/4
f 291/2/4 287/2/4 292/2/4
f 288/2/4 283/2/4 293/2/4
f 293/2/4 283/2/4 294/2/4
f 289/4/4 290/4/4 298/4/4
f 298/4/4 290/4/4 299/4/4
f 294/3/4 295/3/4 300/3/4
f 300/3/4 295/3/4 301/3/4
f 301/3/4 295/3/4 302/3/4
f 296/3/4 297/3/4 303/3/4
f 303/3/4 297/3/4 304/3/4
f 301/3/4 302/3/4 305/3/4
f 302/3/4 303/3/4 305/3/4
f 305/3/4 303/3/4 306/3/4
f 307/3/4 308/3/4 315/3/4
f 315/3/4 308/3/4 316/3/4
f 309/2/4 310/2/4 318/2/4
f 311/2/4 312/2/4 319/2/4
f 309/2/4 318/2/4 322/2/4
f 318/2/4 319/2/4 322/2/4
f 319/2/4 312/2/4 323/2/4
f 322/2/4 319/2/4 323/2/4
f 320/4/4 321/4/4 324/4/4
f 324/4/4 321/4/4 325/4/4
f 313/3/4 314/3/4 326/3/4
f 326/3/4 314/3/4 327/3/4
f 316/3/4 317/3/4 329/3/4
f 329/3/4 317/3/4 330/3/4
f 328/3/4 329/3/4 331/3/4
f 331/3/4 329/3/4 332/3/4
f 335/4/4 336/4/4 339/4/4
f 339/4/4 336/4/4 340/4/4
f 333/2/4 334/2/4 341/2/4
f 341/2/4 334/2/4 342/2/4
f 337/3/4 338/3/4 343/3/4
f 343/3/4 338/3/4 344/3/4
f 347/2/5 346/2/5 345/2/5
f 348/2/5 346/2/5 347/2/5
f 351/4/5 350/4/5 349/4/5
f 352/4/5 350/4/5 351/4/5
f 355/2/5 354/2/5 353/2/5
f 356/2/5 354/2/5 355/2/5
f 359/4/5 358/4/5 357/4/5
f 360/4/5 358/4/5 359/4/5
f 363/4/5 362/4/5 361/4/5
f 364/4/5 362/4/5 363/4/5
f 367/4/5 366/4/5 365/4/5
f 368/4/5 366/4/5 367/4/5
f 371/2/5 370/2/5 369/2/5
f 372/2/5 370/2/5 371/2/5
f 375/4/5 374/4/5 373/4/5
f 376/4/5 374/4/5 375/4/5
f 380/3/5 378/3/5 377/3/5
f 381/3/5 378/3/5 380/3/5
f 383/3/5 380/3/5 379/3/5
f 384/3/5 380/3/5 383/3/5
f 385/3/5 382/3/5 381/3/5
f 386/3/5 382/3/5 385/3/5
f 387/3/5 385/3/5 384/3/5
f 388/3/5 385/3/5 387/3/5
f 391/3/5 390/3/5 389/3/5
f 392/3/5 390/3/5 391/3/5
f 397/3/5 394/3/5 393/3/5
f 398/3/5 394/3/5 397/3/5
f 399/3/5 396/3/5 395/3/5
f 400/3/5 396/3/5 399/3/5
f 403/3/5 402/3/5 401/3/5
f 404/3/5 402/3/5 403/3/5
f 409/3/5 406/3/5 405/3/5
f 410/3/5 406/3/5 409/3/5
f 411/3/5 408/3/5 407/3/5
f 412/3/5 408/3/5 411/3/5
f 417/3/5 414/3/5 413/3/5
f 418/3/5 414/3/5 417/3/5
f 419/3/5 416/3/5 415/3/5
f 420/3/5 416/3/5 419/3/5
f 424/3/5 422/3/5 421/3/5
f 425/3/5 422/3/5 424/3/5
f 427/3/5 424/3/5 423/3/5
f 428/3/5 424/3/5 427/3/5
f 429/3/5 426/3/5 425/3/5
f 430/3/5 426/3/5 429/3/5
f 431/3/5 429/3/5 428/3/5
f 432/3/5 429/3/5 431/3/5
f 433/4/6 434/4/6 435/4/6
f 435/4/6 434/4/6 436/4/6
f 437/2/6 438/2/6 439/2/6
f 439/2/6 438/2/6 440/2/6
f 441/4/6 442/4/6 443/4/6
f 443/4/6 442/4/6 444/4/6
f 445/4/6 446/4/6 447/4/6
f 447/4/6 446/4/6 448/4/6
f 449/4/6 450/4/6 451/4/6
f 451/4/6 450/4/6 452/4/6
f 453/2/6 454/2/6 455/2/6
f 455/2/6 454/2/6 456/2/6
f 457/4/6 458/4/6 459/4/6
f 459/4/6 458/4/6 460/4/6
f 461/1/6 462/1/6 463/1/6
f 463/1/6 462/1/6 464/1/6
f 465/3/6 466/3/6 468/3/6
f 468/3/6 466/3/6 469/3/6
f 467/3/6 468/3/6 471/3/6
f 471/3/6 468/3/6 472/3/6
f 469/3/6 470/3/6 473/3/6
f 473/3/6 470/3/6 474/3/6
f 472/3/6 473/3/6 475/3/6
f 475/3/6 473/3/6 476/3/6
f 477/3/6 478/3/6 480/3/6
f 480/3/6 478/3/6 481/3/6
f 479/3/6 480/3/6 484/3/6
f 484/3/6 480/3/6 485/3/6
f 481/3/6 482/3/6 486/3/6
f 486/3/6 482/3/6 487/3/6
f 483/3/6 484/3/6 489/3/6
f 489/3/6 484/3/6 490/3/6
f 487/3/6 488/3/6 493/3/6
f 493/3/6 488/3/6 494/3/6
f 490/3/6 491/3/6 495/3/6
f 495/3/6 491/3/6 496/3/6
f 492/3/6 493/3/6 497/3/6
f 497/3/6 493/3/6 498/3/6
f 496/3/6 497/3/6 499/3/6
f 499/3/6 497/3/6 500/3/6
f 501/3/6 502/3/6 504/3/6
f 504/3/6 502/3/6 505/3/6
f 503/3/6 504/3/6 507/3/6
f 507/3/6 504/3/6 508/3/6
f 505/3/6 506/3/6 509/3/6
f 509/3/6 506/3/6 510/3/6
f 508/3/6 509/3/6 511/3/6
f 511/3/6 509/3/6 512/3/6
